<svg xmlns="http://www.w3.org/2000/svg" xmlns:xlink="http://www.w3.org/1999/xlink" width="1920" height="1080" viewBox="0 0 1920 1080">
  <defs>
    <clipPath id="clip-Web_1920_1">
      <rect width="1920" height="1080"/>
    </clipPath>
  </defs>
  <g id="Web_1920_1" data-name="Web 1920 – 1" clip-path="url(#clip-Web_1920_1)">
    <rect width="1920" height="1080" fill="#090117"/>
    <path id="trophy_1_" data-name="trophy (1)" d="M21.67,2H19.292a2.417,2.417,0,0,0-2.162,2.162H8.485A2.417,2.417,0,0,0,6.323,2H2v9.727a2.324,2.324,0,0,0,2.162,2.162H6.539c.432,2.162,1.837,4,5.188,4.323v2.27c-2.378.216-3.242,1.4-3.242,2.81v.324h8.646v-.324c0-1.4-.865-2.594-3.242-2.81v-2.27c3.35-.324,4.755-2.162,5.188-4.323h2.378a2.324,2.324,0,0,0,2.162-2.162V2H21.67M4.162,11.727V4.162H6.323v7.565H4.162m17.292,0H19.292V4.162h2.162Z" transform="translate(63 158.002)" fill="#ffd1d1"/>
    <path id="trophy-award" d="M16.056,11.4l1.513,5.728L12.6,13.024,7.626,17.131l1.513-5.62L4.6,7.728,10.436,7.4,12.6,2l2.162,5.4,5.836.324L16.056,11.4m-1.3,9.078H13.678v-3.35L12.6,16.05l-1.081,1.081v3.35H10.436a2.162,2.162,0,0,0-2.162,2.162v1.081h8.646V22.643A2.162,2.162,0,0,0,14.759,20.481Z" transform="translate(92.823 158.002)" fill="#ffd1d1"/>
    <path id="trophy-outline" d="M2,2v9.727a2.324,2.324,0,0,0,2.162,2.162H6.539c.432,2.162,1.837,4,5.188,4.323v2.27c-2.378.216-3.242,1.4-3.242,2.81v.324h8.646v-.324c0-1.4-.865-2.594-3.242-2.81v-2.27c3.35-.324,4.755-2.162,5.188-4.323h2.378a2.324,2.324,0,0,0,2.162-2.162V2H19.292a2.417,2.417,0,0,0-2.162,2.162H8.485A2.417,2.417,0,0,0,6.323,2H2M4.162,4.162H6.323v7.565H4.162V4.162m15.131,0h2.162v7.565H19.292V4.162M8.485,6.323h8.646v5.944c0,2.086-.627,3.783-4.323,3.783s-4.323-1.7-4.323-3.783Z" transform="translate(122.442 158.002)" fill="#ffd1d1"/>
    <path id="trophy-variant-outline" d="M7.4,2V4.162H2v7.565a2.324,2.324,0,0,0,2.162,2.162H7.62c.432,2.053,1.513,3.891,4.107,4.215v2.27c-3.242.216-3.242,1.4-3.242,2.81v.432h8.646v-.324c0-1.4,0-2.594-3.242-2.81v-2.27C16.59,17.887,17.671,16.05,18,14h3.458a2.324,2.324,0,0,0,2.162-2.162V4.162h-5.4V2H7.4M9.565,4.162H16.05v8.646a3.242,3.242,0,0,1-3.242,3.242,3.027,3.027,0,0,1-3.242-3.242V4.162m-5.4,2.162H7.4v5.4H4.162v-5.4m14.05,0h3.242v5.4H18.212Z" transform="translate(154.865 158.002)" fill="#ffd1d1"/>
    <path id="trophy-variant" d="M21.67,4.162H18.212V2H7.4V4.162H2v7.565a2.324,2.324,0,0,0,2.162,2.162H7.62c.432,2.053,1.513,3.891,4.107,4.215v2.27c-3.242.216-3.242,1.4-3.242,2.81v.432h8.646v-.324c0-1.4,0-2.594-3.242-2.81v-2.27C16.59,17.887,17.671,16.05,18,14h3.458a2.324,2.324,0,0,0,2.162-2.162V4.162H21.67M4.162,11.727v-5.4H7.4v5.4H4.162m17.292,0H18.212v-5.4h3.242Z" transform="translate(187.288 158.002)" fill="#ffd1d1"/>
    <path id="trophy-solid" d="M23.33,2.7h-4.4V1.014A1.012,1.012,0,0,0,17.92,0H6.424A1.012,1.012,0,0,0,5.41,1.014V2.7h-4.4A1.012,1.012,0,0,0,0,3.719V6.086a5.515,5.515,0,0,0,2.616,4.256A9.9,9.9,0,0,0,7.265,12.1a9.349,9.349,0,0,0,2.878,3.111v3.043H8.115a2.439,2.439,0,0,0-2.7,2.367v.507a.509.509,0,0,0,.507.507h12.51a.509.509,0,0,0,.507-.507v-.507a2.439,2.439,0,0,0-2.7-2.367H14.2V15.215A9.349,9.349,0,0,0,17.079,12.1a9.867,9.867,0,0,0,4.649-1.762,5.527,5.527,0,0,0,2.616-4.256V3.719A1.012,1.012,0,0,0,23.33,2.7ZM4.2,8.149A3.109,3.109,0,0,1,2.7,6.086V5.41H5.418a15.18,15.18,0,0,0,.541,3.643A6.811,6.811,0,0,1,4.2,8.149ZM21.64,6.086a3.248,3.248,0,0,1-1.492,2.063,6.838,6.838,0,0,1-1.767.9,15.18,15.18,0,0,0,.541-3.643H21.64Z" transform="translate(221.819 159.978)" fill="#ffd1d1"/>
    <path id="octagram-outline" d="M2.2,15.734,3.841,11.77,2.2,7.805,6.165,6.165,7.805,2.2,11.77,3.841,15.734,2.2l1.641,3.965L21.34,7.805,19.7,11.77l1.641,3.965-3.965,1.641L15.734,21.34,11.77,19.7,7.805,21.34,6.165,17.375,2.2,15.734M4.749,8.84,5.96,11.77,4.749,14.7l2.91,1.182,1.182,2.91,2.93-1.211,2.93,1.211,1.182-2.91,2.91-1.182L17.58,11.77l1.211-2.93-2.91-1.182L14.7,4.749,11.77,5.96,8.84,4.749,7.659,7.659Z" transform="translate(66.8 233.8)" fill="#f9d1ff"/>
    <path id="octagram" d="M2.2,15.734,3.841,11.77,2.2,7.805,6.165,6.165,7.805,2.2,11.77,3.841,15.734,2.2l1.641,3.965L21.34,7.805,19.7,11.77l1.641,3.965-3.965,1.641L15.734,21.34,11.77,19.7,7.805,21.34,6.165,17.375Z" transform="translate(96.095 233.8)" fill="#f9d1ff"/>
    <path id="star-circle-outline" d="M8.425,16.892l.9-3.8-2.93-2.519,3.857-.361,1.514-3.525,1.514,3.564,3.857.322-2.93,2.519.9,3.8-3.34-2.012-3.34,2.012M11.765,2A9.765,9.765,0,1,1,2,11.765,9.765,9.765,0,0,1,11.765,2m0,1.953a7.812,7.812,0,1,0,7.812,7.812,7.812,7.812,0,0,0-7.812-7.812Z" transform="translate(125.591 234)" fill="#f9d1ff"/>
    <path id="star-circle" d="M15.9,17.624l-4.131-2.49-4.131,2.49,1.094-4.7L5.086,9.773l4.8-.41L11.765,4.93,13.64,9.353l4.8.41L14.8,12.917,15.9,17.624M11.765,2a9.765,9.765,0,1,0,9.765,9.765A9.775,9.775,0,0,0,11.765,2Z" transform="translate(154.886 234)" fill="#f9d1ff"/>
    <path id="star-face" d="M11.765,2.5l-3.5,5.429L2,9.57l4.1,5.019L5.73,21.054,11.765,18.7,17.8,21.054l-.371-6.464,4.1-5.019L15.261,7.929,11.765,2.5M9.207,10.312a1.1,1.1,0,1,1-1.1,1.1,1.094,1.094,0,0,1,1.1-1.1m5.127,0a1.1,1.1,0,1,1-1.1,1.1,1.094,1.094,0,0,1,1.1-1.1m-5.5,4.394h5.859a3.174,3.174,0,0,1-5.859,0Z" transform="translate(184.181 233.5)" fill="#f9d1ff"/>
    <path id="star-four-points-outline" d="M11.742,6.566l1.416,3.76,3.76,1.416-3.76,1.416-1.416,3.76-1.416-3.76-3.76-1.416,3.76-1.416,1.416-3.76m0-5.566L8.812,8.812,1,11.742l7.812,2.93,2.93,7.812,2.93-7.812,7.812-2.93-7.812-2.93Z" transform="translate(214.476 235)" fill="#f9d1ff"/>
    <path id="star-four-points" d="M11.742,1,8.812,8.812,1,11.742l7.812,2.93,2.93,7.812,2.93-7.812,7.812-2.93-7.812-2.93Z" transform="translate(245.725 235)" fill="#f9d1ff"/>
    <path id="star-half" d="M11.765,15.085V6l1.67,3.935,4.277.361L14.47,13.122l.967,4.179M21.53,9.07l-7.021-.6L11.765,2,9.021,8.474,2,9.07l5.322,4.619L5.73,20.554l6.035-3.642L17.8,20.554l-1.6-6.865Z" transform="translate(363.859 234)" fill="#f9d1ff"/>
    <path id="star-outline" d="M11.765,15.075,8.093,17.292l.967-4.179L5.818,10.3,10.1,9.939l1.67-3.945,1.67,3.945,4.277.361L14.47,13.113l.967,4.179M21.53,9.07l-7.021-.6L11.765,2,9.021,8.474,2,9.07l5.322,4.619L5.73,20.554l6.035-3.642L17.8,20.554l-1.6-6.865Z" transform="translate(393.154 234)" fill="#f9d1ff"/>
    <path id="star-three-points-outline" d="M11.765,9.338l1.172,3.906,2.734,2.93-3.906-.879-4,.879,2.734-2.93,1.269-3.906m0-6.738-2.93,9.57L2,19.494l9.765-2.246,9.765,2.344-6.836-7.324Z" transform="translate(275.973 233.4)" fill="#f9d1ff"/>
    <path id="star-three-points" d="M11.765,2.6l-2.93,9.57L2,19.494l9.765-2.246,9.765,2.344-6.836-7.324Z" transform="translate(305.268 233.4)" fill="#f9d1ff"/>
    <path id="star" d="M11.765,16.911,17.8,20.554l-1.6-6.865L21.53,9.07l-7.021-.605L11.765,2,9.021,8.464,2,9.07l5.322,4.619L5.73,20.554Z" transform="translate(334.564 234)" fill="#f9d1ff"/>
    <path id="chart-arc" d="M17.389,21.122l-2.194-3.8a4.892,4.892,0,0,0,1.965-3.406h4.4a9.334,9.334,0,0,1-4.17,7.205M13.917,7.4V3a9.322,9.322,0,0,1,8.734,8.734h-4.4A4.9,4.9,0,0,0,13.917,7.4m-6.55,5.972a4.732,4.732,0,0,0,.415,1.965l-3.8,2.194A9.192,9.192,0,0,1,3,13.371a9.3,9.3,0,0,1,8.734-9.28v4.4a4.909,4.909,0,0,0-4.367,4.88m4.913,9.28a9.221,9.221,0,0,1-7.751-4.17l3.8-2.194a4.879,4.879,0,0,0,3.952,2,4.732,4.732,0,0,0,1.965-.415l2.194,3.8A9.192,9.192,0,0,1,12.28,22.651Z" transform="translate(66 307.562)" fill="#d1d3ff"/>
    <path id="chart-areaspline" d="M18.867,16.348l4.967-8.592V22.7H2V3.05H4.183v13.69l6-10.415,7.1,4.127,4.629-8L23.8,3.542l-5.71,9.88L10.985,9.328,4.522,20.518H6.989l4.793-8.253Z" transform="translate(97.568 308.112)" fill="#d1d3ff"/>
    <path id="chart-bar-stacked" d="M23.834,22.651H2V3H4.183V20.467H6.367V18.284h4.367v2.183h2.183V17.192h4.367v3.275h2.183V18.284h4.367v4.367m-4.367-7.642h4.367v2.183H19.467V15.009m-6.55-8.734h4.367V9.55H12.917V6.275M17.284,16.1H12.917V10.642h4.367V16.1M6.367,10.642h4.367v2.183H6.367V10.642m4.367,6.55H6.367V13.917h4.367Z" transform="translate(130.319 307.562)" fill="#d1d3ff"/>
    <path id="chart-bar" d="M23.834,22.651H2V3H4.183V20.467H6.367V10.642h4.367v9.825h2.183V6.275h4.367V20.467h2.183V15.009h4.367Z" transform="translate(163.071 307.562)" fill="#d1d3ff"/>
    <path id="chart-bell-curve" d="M10.69,12.164c.939-3.5,1.681-5.8,3.319-5.8s2.38,2.293,3.319,5.8c1.048,3.941,2.249,8.4,6.507,8.4V18.376c-2.4,0-3.275-2.686-4.4-6.769-.972-3.646-1.987-7.424-5.426-7.424S9.555,7.961,8.583,11.607c-1.092,4.083-2,6.769-4.4,6.769V2H2V23.834H23.834V21.651H4.183V20.559C8.441,20.559,9.642,16.1,10.69,12.164Z" transform="translate(195.822 308.562)" fill="#d1d3ff"/>
    <path id="chart-bubble" d="M7.493,11.86A3.493,3.493,0,1,1,4,15.354,3.49,3.49,0,0,1,7.493,11.86m8.3,5.24a2.183,2.183,0,1,1-2.183,2.183A2.183,2.183,0,0,1,15.791,17.1M16.227,4a5.24,5.24,0,1,1-5.24,5.24A5.24,5.24,0,0,1,16.227,4Z" transform="translate(226.574 306.562)" fill="#d1d3ff"/>
    <path id="chart-donut-variant" d="M14.009,2.05a10.924,10.924,0,0,1,9.825,10.863,10.782,10.782,0,0,1-.961,4.443l-2.86-1.67a7.342,7.342,0,0,0,.546-2.773,7.637,7.637,0,0,0-6.55-7.555V2.05m-1.092,18.5a7.522,7.522,0,0,0,5.95-2.86l2.838,1.67A10.911,10.911,0,1,1,11.825,2.05V5.358a7.637,7.637,0,0,0,1.092,15.2m0-14.192a6.553,6.553,0,0,1,1.092,13.013V16a3.276,3.276,0,0,0-1.092-6.365l-.6.055L10.635,6.777a6.318,6.318,0,0,1,2.282-.415m-6.55,6.55a6.563,6.563,0,0,1,2.38-5.044l1.681,2.915A3.277,3.277,0,0,0,11.825,16v3.373A6.559,6.559,0,0,1,6.367,12.913Z" transform="translate(256.958 308.512)" fill="#d1d3ff"/>
    <path id="chart-donut" d="M14.009,2.05V5.358a7.637,7.637,0,0,1,6.55,7.555,7.342,7.342,0,0,1-.546,2.773l2.86,1.67a10.782,10.782,0,0,0,.961-4.443A10.924,10.924,0,0,0,14.009,2.05m-1.092,18.5a7.637,7.637,0,0,1-1.092-15.2V2.05a10.916,10.916,0,1,0,9.88,17.315l-2.838-1.67A7.522,7.522,0,0,1,12.917,20.555Z" transform="translate(289.71 308.512)" fill="#d1d3ff"/>
    <path id="chart-line_1_" data-name="chart-line (1)" d="M17.284,12.585l4.629-8L23.8,5.675l-5.71,9.88-7.107-4.094L5.777,20.467H23.834v2.183H2V3H4.183V18.874l6-10.415Z" transform="translate(322.461 307.562)" fill="#d1d3ff"/>
    <path id="finance" d="M3.061,14.1H7.427V25.018H3.061V14.1M10.7,15.192h4.367v9.825H10.7V15.192m7.642-5.459h4.367V25.018H18.345V9.734m0-8.734h4.367V5.367H21.62V3.249l-8.766,8.766L8.519,7.681,3.5,12.7,2.34,11.546,8.519,5.367,12.853,9.7l7.609-7.609H18.345Z" transform="translate(354.872 307)" fill="#d1d3ff"/>
    <path id="poll-box" d="M18.284,18.284H16.1V13.917h2.183m-4.367,4.367H11.734V7.367h2.183M9.55,18.284H7.367V10.642H9.55M20.467,3H5.183A2.176,2.176,0,0,0,3,5.183V20.467a2.183,2.183,0,0,0,2.183,2.183H20.467a2.183,2.183,0,0,0,2.183-2.183V5.183A2.183,2.183,0,0,0,20.467,3Z" transform="translate(385.872 307.562)" fill="#d1d3ff"/>
    <path id="poll" d="M3,23.834V8.55H7.367V23.834H3m7.642,0V2h4.367V23.834H10.642m7.642,0V15.1h4.367v8.734Z" transform="translate(416.44 306.854)" fill="#d1d3ff"/>
    <path id="counter" d="M4,4H20a2,2,0,0,1,2,2V18a2,2,0,0,1-2,2H4a2,2,0,0,1-2-2V6A2,2,0,0,1,4,4M4,6V18h7V6H4M20,18V6H18.76a2.509,2.509,0,0,1,.19,1.13,3.973,3.973,0,0,1-.71,1.62L15.91,11.3l3.32-.02.01,1.22-5.2-.03-.04-1s3.05-3.23,3.2-3.52S17.91,6,16.5,6a1.127,1.127,0,0,0-1.09,1.3l-1.54.01A3.034,3.034,0,0,1,14.25,6H13V18h2.58l-.01-.86.97-.01a1.112,1.112,0,0,0,.92-1.05.877.877,0,0,0-.96-1c-.13,0-1.07.05-1.07.87H13.91s.04-2.06,2.59-2.06c2.6,0,2.46,2.02,2.46,2.02a1.863,1.863,0,0,1-1.11,1.72l.52.37H20M8.92,16H7.42V10.2l-1.8.56V9.53L8.76,8.41h.16Z" transform="translate(68 471)" fill="#d1fff7"/>
    <path id="arrow-top-right-bold-outline" d="M5.754,4.22H21.032V19.5L16.45,14.916l-6.115,6.115L4.22,14.916,10.335,8.8,5.754,4.22M18.741,6.511H11.1L13.393,8.8,7.278,14.916l3.058,3.058,6.115-6.115,2.291,2.291V6.511Z" transform="translate(99.78 471.941)" fill="#d1fff7"/>
    <path id="arrow-top-right-thick" d="M8.726,19.325,5.69,16.289,12.572,9.4H7.224V5.69h12.1v12.1h-3.7V12.443Z" transform="translate(126.401 470.471)" fill="#d1fff7"/>
    <path id="arrow-top-right" d="M5,18.6,16.442,7.161H9.322V5h10.8V15.8H17.965V8.684L6.523,20.126Z" transform="translate(151.941 471.161)" fill="#d1fff7"/>
    <path id="arrow-up-bold-box" d="M20.287,22.448H5.161A2.161,2.161,0,0,1,3,20.287V5.161A2.161,2.161,0,0,1,5.161,3H20.287a2.161,2.161,0,0,1,2.161,2.161V20.287a2.161,2.161,0,0,1-2.161,2.161M12.724,7.322l-5.4,5.4h3.241v4.322h4.322V12.724h3.241Z" transform="translate(179.872 471)" fill="#d1fff7"/>
    <path id="arrow-up-bold-circle-outline" d="M12.8,7.4l5.4,5.4H14.965v4.322H10.643V12.8H7.4l5.4-5.4m0,16.206a10.8,10.8,0,1,1,10.8-10.8,10.8,10.8,0,0,1-10.8,10.8m0-2.161A8.643,8.643,0,1,0,4.161,12.8,8.643,8.643,0,0,0,12.8,21.448Z" transform="translate(211.124 472)" fill="#d1fff7"/>
    <path id="arrow-up-bold-circle" d="M12.8,23.609a10.8,10.8,0,1,1,10.8-10.8,10.8,10.8,0,0,1-10.8,10.8M12.8,7.4,7.4,12.8h3.241v4.322h4.322V12.8h3.241Z" transform="translate(243.537 472)" fill="#d1fff7"/>
    <path id="arrow-up-bold" d="M15.872,21.274H9.389V12.631H4.16L12.631,4.16,21.1,12.631H15.872Z" transform="translate(273.79 469.84)" fill="#d1fff7"/>
    <path id="arrow-up-box" d="M22.448,20.287a2.161,2.161,0,0,1-2.161,2.161H5.161A2.161,2.161,0,0,1,3,20.287V5.161A2.161,2.161,0,0,1,5.161,3H20.287a2.16,2.16,0,0,1,2.161,2.161V20.287M13.8,19.206V10.023L17.586,13.8,19.12,12.27l-6.4-6.4-6.4,6.4L7.862,13.8l3.782-3.782v9.184Z" transform="translate(303.041 471)" fill="#d1fff7"/>
    <path id="arrow-up-circle-outline" d="M13.885,19.287H11.724V10.643L7.942,14.425,6.408,12.891l6.4-6.4,6.4,6.4-1.534,1.534-3.782-3.782v8.643M12.8,2A10.8,10.8,0,1,1,2,12.8,10.8,10.8,0,0,1,12.8,2m0,2.161A8.643,8.643,0,1,0,21.448,12.8,8.643,8.643,0,0,0,12.8,4.161Z" transform="translate(334.293 472)" fill="#d1fff7"/>
    <path id="arrow-up-circle" d="M13.885,19.287V10.643l3.782,3.782L19.2,12.891l-6.4-6.4-6.4,6.4,1.534,1.534,3.782-3.782v8.643h2.161M12.8,2A10.8,10.8,0,1,1,2,12.8,10.8,10.8,0,0,1,12.8,2Z" transform="translate(366.706 472)" fill="#d1fff7"/>
    <path id="arrow-up-drop-circle-outline" d="M12.8,23.609A10.8,10.8,0,1,0,2,12.8a10.8,10.8,0,0,0,10.8,10.8m0-2.161A8.643,8.643,0,1,1,21.448,12.8,8.643,8.643,0,0,1,12.8,21.448m5.4-6.483-5.4-5.4-5.4,5.4Z" transform="translate(399.119 472)" fill="#d1fff7"/>
    <path id="arrow-up-drop-circle" d="M12.8,23.609a10.8,10.8,0,1,1,10.8-10.8,10.8,10.8,0,0,1-10.8,10.8m5.4-8.643-5.4-5.4-5.4,5.4Z" transform="translate(431.532 472)" fill="#d1fff7"/>
    <path id="arrow-up-thick" d="M14.8,21.274H10.476V11.55L6.695,15.332,4.08,12.717,12.637,4.16l8.557,8.557-2.615,2.615L14.8,11.55Z" transform="translate(461.865 469.84)" fill="#d1fff7"/>
    <path id="arrow-up" d="M13.717,21.274H11.557V8.309L5.614,14.251,4.08,12.717,12.637,4.16l8.557,8.557L19.66,14.251,13.717,8.309Z" transform="translate(489.956 469.84)" fill="#d1fff7"/>
    <path id="chevron-double-up" d="M7.523,19.489,6,17.965l6.483-6.483,6.483,6.483-1.523,1.523L12.483,14.54,7.523,19.489m0-6.483L6,11.483,12.483,5l6.483,6.483-1.523,1.523L12.483,8.058Z" transform="translate(516.127 469)" fill="#d1fff7"/>
    <path id="chevron-up" d="M7.523,16.006l4.959-4.948,4.959,4.948,1.523-1.523L12.483,8,6,14.483Z" transform="translate(539.897 466)" fill="#d1fff7"/>
    <path id="thumb-up-outline" d="M5.322,9.643V22.609H1V9.643H5.322M9.643,22.609a2.161,2.161,0,0,1-2.161-2.161V9.643A2.113,2.113,0,0,1,8.12,8.12L15.229,1l1.145,1.145A1.6,1.6,0,0,1,16.85,3.28l-.032.346L15.791,8.563h6.818a2.16,2.16,0,0,1,2.161,2.161v2.161a2.135,2.135,0,0,1-.151.789l-3.263,7.617a2.146,2.146,0,0,1-1.988,1.318H9.643m0-2.161H19.4l3.209-7.563V10.724h-9.5l1.221-5.748-4.689,4.7Z" transform="translate(568.666 473)" fill="#d1fff7"/>
    <path id="thumb-up" d="M24.77,10.724a2.16,2.16,0,0,0-2.161-2.161H15.78l1.037-4.938a1.788,1.788,0,0,0,.032-.346,1.626,1.626,0,0,0-.475-1.145L15.229,1,8.12,8.109a2.156,2.156,0,0,0-.637,1.534v10.8a2.161,2.161,0,0,0,2.161,2.161h9.724a2.146,2.146,0,0,0,1.988-1.318l3.263-7.617a2.135,2.135,0,0,0,.151-.789V10.724M1,22.609H5.322V9.643H1Z" transform="translate(603.24 473)" fill="#d1fff7"/>
    <path id="account-clock-outline" d="M17.984,15.322h1.7v3.193l2.763,1.6L21.6,21.584,17.984,19.5V15.322m1.132-2.264a5.661,5.661,0,1,0,5.661,5.661,5.661,5.661,0,0,0-5.661-5.661m0-2.264a7.926,7.926,0,1,1-7.167,11.322H1v-3.4c0-3.012,6.035-4.529,9.058-4.529a15.164,15.164,0,0,1,2.4.226,7.917,7.917,0,0,1,6.658-3.623M11.19,18.719a7.765,7.765,0,0,1,.328-2.264,8.969,8.969,0,0,0-1.461-.113c-3.363,0-6.907,1.653-6.907,2.378v1.245h8.141a7.6,7.6,0,0,1-.1-1.245M10.058,4A4.529,4.529,0,1,1,5.529,8.529,4.529,4.529,0,0,1,10.058,4m0,2.151a2.378,2.378,0,1,0,2.378,2.378A2.378,2.378,0,0,0,10.058,6.151Z" transform="translate(69 556)" fill="#d1ffd6"/>
    <path id="account-clock" d="M11.9,15.436a7.918,7.918,0,1,1,.045,6.68H1V19.851c.068-1.291.951-2.344,2.649-3.193a14.857,14.857,0,0,1,6.409-1.336c.645,0,1.257.057,1.846.113h0M10.058,4A4.5,4.5,0,0,1,13.24,5.325a4.334,4.334,0,0,1,1.268,3.2A4.336,4.336,0,0,1,10.058,13a4.336,4.336,0,0,1-4.45-4.472,4.334,4.334,0,0,1,1.268-3.2A4.5,4.5,0,0,1,10.058,4m9.058,20.38a5.661,5.661,0,1,0-5.661-5.661,5.661,5.661,0,0,0,5.661,5.661m-1.132-9.058h1.7v3.193l2.763,1.6L21.6,21.584,17.984,19.5Z" transform="translate(107.496 556)" fill="#d1ffd6"/>
    <path id="alarm-check" d="M11.669,16.206,9.258,13.794l-1.2,1.2,3.6,3.6L18.452,11.8l-1.2-1.2-5.582,5.6M13.322,22.4a7.926,7.926,0,1,1,7.926-7.926A7.926,7.926,0,0,1,13.322,22.4m0-18.116a10.19,10.19,0,1,0,10.19,10.19,10.19,10.19,0,0,0-10.19-10.19M8.658,3.592,7.208,1.86,2,6.219,3.461,7.951l5.2-4.359M24.645,6.23,19.437,1.86,17.976,3.592l5.208,4.37Z" transform="translate(144.993 558.14)" fill="#d1ffd6"/>
    <path id="alarm-multiple" d="M10.386,3.432,5.71,7.361,4.4,5.8,9.084,1.87l1.3,1.562M24.777,5.81,23.464,7.373l-4.687-3.94L20.09,1.87l4.687,3.94M14.587,4.282A9.058,9.058,0,1,1,5.529,13.34a9.058,9.058,0,0,1,9.058-9.058m0,2.264A6.793,6.793,0,1,0,21.38,13.34a6.793,6.793,0,0,0-6.793-6.793m-1.132,1.7h1.7v5.129L18.8,15.038l-.7,1.54-4.642-2.106V8.245M1,15.6A9,9,0,0,1,4.295,8.618a11.294,11.294,0,0,0-1.03,4.721l.068,1.279-.068.985A6.8,6.8,0,0,0,6.82,21.582,11.34,11.34,0,0,0,12.2,24.413a9.54,9.54,0,0,1-2.14.249A9.058,9.058,0,0,1,1,15.6Z" transform="translate(179.96 558.13)" fill="#d1ffd6"/>
    <path id="alarm" d="M13.322,22.4a7.926,7.926,0,1,1,7.926-7.926A7.926,7.926,0,0,1,13.322,22.4m0-18.116a10.19,10.19,0,1,0,10.19,10.19,10.19,10.19,0,0,0-10.19-10.19m.566,4.529h-1.7v6.793l5.378,3.227.849-1.393-4.529-2.683V8.812M8.658,3.592,7.208,1.86,2,6.219,3.461,7.951l5.2-4.359M24.645,6.23,19.437,1.86,17.976,3.592l5.208,4.37Z" transform="translate(214.06 558.14)" fill="#d1ffd6"/>
    <path id="clock-alert-outline" d="M13.322,2a11.322,11.322,0,1,0,6.793,20.38V19.3a9.055,9.055,0,1,1,1.6-9.375h2.412A11.292,11.292,0,0,0,13.322,2M12.19,7.661v6.793l5.944,3.567.849-1.393-5.1-3.023V7.661h-1.7M22.38,12.19v7.926h2.264V12.19H22.38m0,10.19v2.264h2.264V22.38Z" transform="translate(248.027 558)" fill="#d1ffd6"/>
    <path id="clock-alert" d="M13.322,2a11.359,11.359,0,0,1,10.8,7.926H20.116V22.38A11.322,11.322,0,1,1,13.322,2m4.755,16.078.906-1.472-5.1-3.057V7.661h-1.7v6.793l5.888,3.623m4.3-5.888h2.264v7.926H22.38V12.19m0,10.19h2.264v2.264H22.38Z" transform="translate(281.994 558)" fill="#d1ffd6"/>
    <path id="clock" d="M13.322,2A11.322,11.322,0,1,0,24.645,13.322,11.322,11.322,0,0,0,13.322,2m4.755,16.078L12.19,14.455V7.661h1.7v5.888l5.1,3.057Z" transform="translate(315.962 558)" fill="#d1ffd6"/>
    <path id="block-helper" d="M13.8,0A13.8,13.8,0,1,1,0,13.8,13.8,13.8,0,0,1,13.8,0m0,2.3A11.5,11.5,0,0,0,4.9,21.073L21.073,4.9A11.478,11.478,0,0,0,13.8,2.3m0,22.993a11.5,11.5,0,0,0,8.9-18.774L6.519,22.694A11.478,11.478,0,0,0,13.8,25.293Z" transform="translate(70 732)" fill="#ffded1"/>
    <path id="cancel" d="M13.5,2A11.5,11.5,0,1,1,2,13.5,11.5,11.5,0,0,1,13.5,2m0,2.3A9.2,9.2,0,0,0,6.231,19.141L19.141,6.231A9.2,9.2,0,0,0,13.5,4.3m0,18.395A9.2,9.2,0,0,0,20.762,7.852L7.852,20.762A9.2,9.2,0,0,0,13.5,22.694Z" transform="translate(107.088 732.299)" fill="#ffded1"/>
    <path id="file-lock" d="M6.3,2A2.3,2.3,0,0,0,4,4.3V22.694a2.3,2.3,0,0,0,2.3,2.3H20.1a2.3,2.3,0,0,0,2.3-2.3V8.9L15.5,2H6.3m8.048,1.724,6.323,6.323H14.347V3.724M13.2,12.347A3.449,3.449,0,0,1,16.646,15.8v1.15H17.8v4.6H8.6v-4.6h1.15V15.8A3.459,3.459,0,0,1,13.2,12.347m0,2.3a1.15,1.15,0,0,0-1.15,1.15v1.15h2.3V15.8A1.168,1.168,0,0,0,13.2,14.646Z" transform="translate(139.578 730)" fill="#ffded1"/>
    <path id="folder-lock-open" d="M22.694,6.3a2.3,2.3,0,0,1,2.3,2.3V20.1a2.3,2.3,0,0,1-2.3,2.3H4.3A2.3,2.3,0,0,1,2,20.1V6.3A2.291,2.291,0,0,1,4.3,4h6.9l2.3,2.3h9.2m-1.15,12.646v-4.6H15.8v-2.3a1.15,1.15,0,1,1,2.3,0h2.3a3.449,3.449,0,1,0-6.9,0v2.3h-1.15v4.6Z" transform="translate(171.469 730.299)" fill="#ffded1"/>
    <path id="folder-lock" d="M22.694,6.3a2.3,2.3,0,0,1,2.3,2.3V20.1a2.3,2.3,0,0,1-2.3,2.3H4.3A2.3,2.3,0,0,1,2,20.1V6.3A2.291,2.291,0,0,1,4.3,4h6.9l2.3,2.3h9.2m-1.15,12.646v-4.6h-1.15V13.2a3.449,3.449,0,1,0-6.9,0v1.15h-1.15v4.6h9.2m-4.6-6.9A1.15,1.15,0,0,1,18.1,13.2v1.15H15.8V13.2A1.15,1.15,0,0,1,16.946,12.048Z" transform="translate(205.959 730.299)" fill="#ffded1"/>
    <path id="lock-alert" d="M13.2,1A5.748,5.748,0,0,0,7.449,6.748v2.3H6.3a2.3,2.3,0,0,0-2.3,2.3v11.5a2.3,2.3,0,0,0,2.3,2.3H20.1a2.3,2.3,0,0,0,2.3-2.3v-11.5a2.3,2.3,0,0,0-2.3-2.3h-1.15v-2.3A5.748,5.748,0,0,0,13.2,1m0,2.184a3.567,3.567,0,0,1,3.564,3.564v2.3H9.633v-2.3A3.567,3.567,0,0,1,13.2,3.184M12.048,12.5h2.3v4.6h-2.3V12.5m0,6.9h2.3v2.3h-2.3Z" transform="translate(238.449 731)" fill="#ffded1"/>
    <path id="lock-clock" d="M9.473,2A5.152,5.152,0,0,0,4.3,7.173v.575a2.291,2.291,0,0,0-2.3,2.3V20.395a2.291,2.291,0,0,0,2.3,2.3H9.726A9.194,9.194,0,1,0,15.8,6.6a7.508,7.508,0,0,0-1.15.092A5.219,5.219,0,0,0,9.473,2m0,2.3a2.874,2.874,0,0,1,2.874,2.874v.575H6.6V7.173A2.874,2.874,0,0,1,9.473,4.3M15.8,8.9a6.9,6.9,0,1,1-6.9,6.9,6.9,6.9,0,0,1,6.9-6.9m-1.15,2.3v5.748l4.185,2.518.9-1.483-3.357-2.012V11.2Z" transform="translate(270.34 730)" fill="#ffded1"/>
    <path id="lock-open-outline" d="M20.1,22.844v-11.5H6.3v11.5H20.1m0-13.8a2.3,2.3,0,0,1,2.3,2.3v11.5a2.3,2.3,0,0,1-2.3,2.3H6.3a2.3,2.3,0,0,1-2.3-2.3v-11.5a2.3,2.3,0,0,1,2.3-2.3H16.646v-2.3a3.449,3.449,0,0,0-6.9,0h-2.3a5.748,5.748,0,1,1,11.5,0v2.3H20.1M13.2,19.395a2.3,2.3,0,1,1,2.3-2.3A2.3,2.3,0,0,1,13.2,19.395Z" transform="translate(302.83 731)" fill="#ffded1"/>
    <path id="lock-open" d="M20.1,9.048a2.3,2.3,0,0,1,2.3,2.3v11.5a2.3,2.3,0,0,1-2.3,2.3H6.3a2.3,2.3,0,0,1-2.3-2.3v-11.5a2.3,2.3,0,0,1,2.3-2.3H16.646v-2.3a3.449,3.449,0,0,0-6.9,0h-2.3a5.748,5.748,0,1,1,11.5,0v2.3H20.1M13.2,19.395a2.3,2.3,0,1,0-2.3-2.3A2.3,2.3,0,0,0,13.2,19.395Z" transform="translate(332.721 731)" fill="#ffded1"/>
    <path id="lock-outline" d="M13.2,19.395a2.3,2.3,0,1,1,2.3-2.3,2.3,2.3,0,0,1-2.3,2.3m6.9,3.449v-11.5H6.3v11.5H20.1m0-13.8a2.3,2.3,0,0,1,2.3,2.3v11.5a2.3,2.3,0,0,1-2.3,2.3H6.3a2.3,2.3,0,0,1-2.3-2.3v-11.5a2.291,2.291,0,0,1,2.3-2.3h1.15v-2.3a5.748,5.748,0,1,1,11.5,0v2.3H20.1M13.2,3.3A3.449,3.449,0,0,0,9.748,6.748v2.3h6.9v-2.3A3.449,3.449,0,0,0,13.2,3.3Z" transform="translate(362.612 731)" fill="#ffded1"/>
    <path id="lock-question" d="M13.2,1A5.748,5.748,0,0,0,7.449,6.748v2.3H6.3a2.3,2.3,0,0,0-2.3,2.3v11.5a2.3,2.3,0,0,0,2.3,2.3H20.1a2.3,2.3,0,0,0,2.3-2.3v-11.5a2.3,2.3,0,0,0-2.3-2.3h-1.15v-2.3A5.748,5.748,0,0,0,13.2,1m0,2.184a3.567,3.567,0,0,1,3.564,3.564v2.3H9.633v-2.3A3.567,3.567,0,0,1,13.2,3.184m.218,8.737a4.166,4.166,0,0,1,2.564.713,2.323,2.323,0,0,1,.931,1.931,2.175,2.175,0,0,1-.506,1.38,3.5,3.5,0,0,1-1.3.977,1.469,1.469,0,0,0-.6.54,1.716,1.716,0,0,0-.161.782h-2.3A1.931,1.931,0,0,1,12.381,17a5.4,5.4,0,0,1,1.23-.966,2.28,2.28,0,0,0,.736-.621,1.514,1.514,0,0,0,.253-.851,1.022,1.022,0,0,0-.31-.793,1.206,1.206,0,0,0-.874-.3,1.324,1.324,0,0,0-.793.241.923.923,0,0,0-.3.724H10.059a2.014,2.014,0,0,1,.9-1.9,4.358,4.358,0,0,1,2.46-.621m-1.368,7.473h2.3v2.3h-2.3Z" transform="translate(392.504 731)" fill="#ffded1"/>
    <path id="lock" d="M13.2,19.395a2.3,2.3,0,1,0-2.3-2.3,2.3,2.3,0,0,0,2.3,2.3M20.1,9.048a2.3,2.3,0,0,1,2.3,2.3v11.5a2.3,2.3,0,0,1-2.3,2.3H6.3a2.3,2.3,0,0,1-2.3-2.3v-11.5a2.3,2.3,0,0,1,2.3-2.3h1.15v-2.3a5.748,5.748,0,1,1,11.5,0v2.3H20.1M13.2,3.3A3.449,3.449,0,0,0,9.748,6.748v2.3h6.9v-2.3A3.449,3.449,0,0,0,13.2,3.3Z" transform="translate(422.395 731)" fill="#ffded1"/>
    <path id="check-box-multiple-outline" d="M20,2H8A2,2,0,0,0,6,4V16a2,2,0,0,0,2,2H20a2,2,0,0,0,2-2V4a2,2,0,0,0-2-2m0,14H8V4H20V16m-4,4v2H4a2,2,0,0,1-2-2V7H4V20H16M18.53,8.06,17.47,7l-4.88,4.88L10.47,9.76,9.41,10.82,12.59,14Z" transform="translate(69 829)" fill="#ffd1d1"/>
    <path id="check-box-outline" d="M19,3H5A2,2,0,0,0,3,5V19a2,2,0,0,0,2,2H19a2,2,0,0,0,2-2V5a2,2,0,0,0-2-2m0,2V19H5V5H19M10,17,6,13l1.41-1.42L10,14.17l6.59-6.59L18,9" transform="translate(98 828)" fill="#ffd1d1"/>
    <path id="check-circle-outline" d="M12,2A10,10,0,1,1,2,12,10,10,0,0,1,12,2m0,2a8,8,0,1,0,8,8,8,8,0,0,0-8-8M11,16.5,6.5,12l1.41-1.41L11,13.67l5.59-5.58L18,9.5Z" transform="translate(127 829)" fill="#ffd1d1"/>
    <path id="check-circle" d="M12,2A10,10,0,1,1,2,12,10,10,0,0,1,12,2M11,16.5l7-7L16.59,8.09,11,13.67,7.91,10.59,6.5,12Z" transform="translate(157 829)" fill="#ffd1d1"/>
    <path id="check-decagram" d="M23,12,20.56,9.22l.34-3.68-3.61-.82L15.4,1.54,12,3,8.6,1.54,6.71,4.72,3.1,5.53l.34,3.68L1,12l2.44,2.78L3.1,18.47l3.61.82L8.6,22.47,12,21l3.4,1.46,1.89-3.18,3.61-.82-.34-3.68L23,12M10,17,6,13l1.41-1.41L10,14.17l6.59-6.59L18,9Z" transform="translate(188 829.46)" fill="#ffd1d1"/>
    <path id="check-outline" d="M19.78,2.2,24,6.42,8.44,22,0,13.55,4.22,9.33l4.22,4.22L19.78,2.2m0,2.8L8.44,16.36,4.22,12.19,2.81,13.55l5.63,5.62L21.19,6.42Z" transform="translate(221 828.8)" fill="#ffd1d1"/>
    <path id="checkbox-blank-outline" d="M19,3H5A1.993,1.993,0,0,0,3,5V19a2,2,0,0,0,2,2H19a2,2,0,0,0,2-2V5a2,2,0,0,0-2-2m0,2V19H5V5Z" transform="translate(252 828)" fill="#ffd1d1"/>
    <path id="checkbox-intermediate" d="M19,3H5A2,2,0,0,0,3,5V19a2,2,0,0,0,2,2H19a2,2,0,0,0,2-2V5a2,2,0,0,0-2-2m0,16H5V5H19V19m-2-2H7V7H17Z" transform="translate(280 828)" fill="#ffd1d1"/>
    <path id="checkbox-marked-circle-outline" d="M20,12a8.006,8.006,0,1,1-5.8-7.69l1.57-1.57A9.822,9.822,0,0,0,12,2,10,10,0,1,0,22,12M7.91,10.08,6.5,11.5,11,16,21,6,19.59,4.58,11,13.17Z" transform="translate(309 829)" fill="#ffd1d1"/>
    <path id="checkbox-marked-circle" d="M10,17,5,12l1.41-1.42L10,14.17l7.59-7.59L19,8M12,2A10,10,0,1,0,22,12,10,10,0,0,0,12,2Z" transform="translate(339 829)" fill="#ffd1d1"/>
    <path id="checkbox-marked-outline" d="M19,19H5V5H15V3H5A1.993,1.993,0,0,0,3,5V19a2,2,0,0,0,2,2H19a2,2,0,0,0,2-2V11H19M7.91,10.08,6.5,11.5,11,16,21,6,19.59,4.58,11,13.17Z" transform="translate(368 828)" fill="#ffd1d1"/>
    <path id="checkbox-marked" d="M10,17,5,12l1.41-1.42L10,14.17l7.59-7.59L19,8m0-5H5A1.993,1.993,0,0,0,3,5V19a2,2,0,0,0,2,2H19a2,2,0,0,0,2-2V5A2,2,0,0,0,19,3Z" transform="translate(396 828)" fill="#ffd1d1"/>
    <path id="checkbox-multiple-blank-circle-outline" d="M14,2a8,8,0,1,0,8,8,8,8,0,0,0-8-8m0,2a6,6,0,1,1-6,6,6,6,0,0,1,6-6M4.93,5.82A7.994,7.994,0,0,0,10,20a7.868,7.868,0,0,0,1.88-.23,10.374,10.374,0,0,1-4.71-2.48A6,6,0,0,1,4,12a6.67,6.67,0,0,1,.07-.89A10.336,10.336,0,0,1,4,10,9.918,9.918,0,0,1,4.93,5.82Z" transform="translate(425 829)" fill="#ffd1d1"/>
    <path id="checkbox-multiple-blank-circle" d="M14,2a8,8,0,1,0,8,8,8,8,0,0,0-8-8M4.93,5.82A7.994,7.994,0,0,0,10,20a7.868,7.868,0,0,0,1.88-.23,10.374,10.374,0,0,1-4.71-2.48A6,6,0,0,1,4,12a6.67,6.67,0,0,1,.07-.89A10.336,10.336,0,0,1,4,10,9.918,9.918,0,0,1,4.93,5.82Z" transform="translate(455 829)" fill="#ffd1d1"/>
    <path id="checkbox-multiple-blank-outline" d="M20,16V4H8V16H20m2,0a2,2,0,0,1-2,2H8a2,2,0,0,1-2-2V4A1.993,1.993,0,0,1,8,2H20a2,2,0,0,1,2,2V16m-6,4v2H4a2,2,0,0,1-2-2V7H4V20Z" transform="translate(485 829)" fill="#ffd1d1"/>
    <path id="checkbox-multiple-marked-outline" d="M20,16V10h2v6a2,2,0,0,1-2,2H8a2,2,0,0,1-2-2V4A1.993,1.993,0,0,1,8,2h8V4H8V16H20M10.91,7.08,14,10.17l6.59-6.59L22,5l-8,8L9.5,8.5l1.41-1.42M16,20v2H4a2,2,0,0,1-2-2V7H4V20Z" transform="translate(515 829)" fill="#ffd1d1"/>
    <path id="checkbox-multiple-marked" d="M22,16a2,2,0,0,1-2,2H8a2,2,0,0,1-2-2V4A1.993,1.993,0,0,1,8,2H20a2,2,0,0,1,2,2V16m-6,4v2H4a2,2,0,0,1-2-2V7H4V20H16m-3-6,7-7L18.59,5.59,13,11.17,9.91,8.09,8.5,9.5Z" transform="translate(545 829)" fill="#ffd1d1"/>
    <path id="clipboard-check-outline" d="M19,3H14.82A2.988,2.988,0,0,0,9.18,3H5A2,2,0,0,0,3,5V19a2,2,0,0,0,2,2H19a2,2,0,0,0,2-2V5a2,2,0,0,0-2-2M12,3a1,1,0,1,1-1,1,1,1,0,0,1,1-1M7,7H17V5h2V19H5V5H7V7m.5,6.5L9,12l2,2,4.5-4.5L17,11l-6,6Z" transform="translate(574 830)" fill="#ffd1d1"/>
    <path id="clipboard-check" d="M10,17,6,13l1.41-1.41L10,14.17l6.59-6.59L18,9M12,3a1,1,0,1,1-1,1,1,1,0,0,1,1-1m7,0H14.82A2.988,2.988,0,0,0,9.18,3H5A2,2,0,0,0,3,5V19a2,2,0,0,0,2,2H19a2,2,0,0,0,2-2V5A2,2,0,0,0,19,3Z" transform="translate(602 830)" fill="#ffd1d1"/>
    <path id="comment-check-outline" d="M9,22a1,1,0,0,1-1-1V18H4a2,2,0,0,1-2-2V4A2,2,0,0,1,4,2H20a2,2,0,0,1,2,2V16a2,2,0,0,1-2,2H13.9l-3.7,3.71a1.019,1.019,0,0,1-.7.29H9m1-6v3.08L13.08,16H20V4H4V16h6m6.5-8L11,13.5,7.5,10,8.91,8.59,11,10.67l4.09-4.08Z" transform="translate(631 829)" fill="#ffd1d1"/>
    <path id="email-check-outline" d="M23.5,17l-5,5L15,18.5,16.5,17l2,2L22,15.5,23.5,17M1,6V18a2,2,0,0,0,2,2H13V18H3V8.37l8,4.99,8-4.99V13h2V6a2,2,0,0,0-2-2H3A1.993,1.993,0,0,0,1,6M3,6H19l-8,5Z" transform="translate(662 827)" fill="#ffd1d1"/>
    <path id="email-check" d="M21,13.34A6.008,6.008,0,0,0,13,19a6.634,6.634,0,0,0,.08,1H3a2,2,0,0,1-2-2V6A1.993,1.993,0,0,1,3,4H19a2,2,0,0,1,2,2v7.34M23.5,17l-5,5L15,18.5,16.5,17l2,2L22,15.5,23.5,17M3,6V8l8,5,8-5V6l-8,5Z" transform="translate(695 827)" fill="#ffd1d1"/>
    <path id="eye-check-outline" d="M23.5,17l-5,5L15,18.5,16.5,17l2,2L22,15.5,23.5,17M12,9a3,3,0,1,1-3,3,3,3,0,0,1,3-3m0-4.5A11.827,11.827,0,0,1,23,12a11.388,11.388,0,0,1-.92,1.85,5.77,5.77,0,0,0-1.9-.73L20.82,12A9.822,9.822,0,0,0,3.18,12,9.821,9.821,0,0,0,12,17.5l1.21-.07A5.832,5.832,0,0,0,13,19v.46l-1,.04A11.827,11.827,0,0,1,1,12,11.827,11.827,0,0,1,12,4.5Z" transform="translate(728 826.5)" fill="#ffd1d1"/>
    <path id="eye-check" d="M23.5,17l-5,5L15,18.5,16.5,17l2,2L22,15.5,23.5,17M12,9a3,3,0,1,1-3,3,3,3,0,0,1,3-3m0,8a4.737,4.737,0,0,0,1.42-.21A6.113,6.113,0,0,0,13,19v.45l-1,.05A11.827,11.827,0,0,1,1,12a11.817,11.817,0,0,1,22,0,11.806,11.806,0,0,1-.92,1.85A5.984,5.984,0,0,0,19,13a6.113,6.113,0,0,0-2.21.42A4.737,4.737,0,0,0,17,12a5,5,0,1,0-5,5Z" transform="translate(761 826.5)" fill="#ffd1d1"/>
    <path id="file-check" d="M13,9h5.5L13,3.5V9M6,2h8l6,6V20a2,2,0,0,1-2,2H6a2,2,0,0,1-2-2V4A1.993,1.993,0,0,1,6,2m4.45,16.46,4.75-4.75L14.03,12.3l-3.58,3.58L8.86,14.3,7.7,15.46Z" transform="translate(791 829)" fill="#ffd1d1"/>
    <path id="map-marker-check" d="M12,2a7.008,7.008,0,0,1,7,7c0,5.25-7,13-7,13S5,14.25,5,9a7.008,7.008,0,0,1,7-7M10.47,14,17,7.41,15.6,6l-5.13,5.18L8.4,9.09,7,10.5Z" transform="translate(816 829)" fill="#ffd1d1"/>
    <path id="marker-check" d="M10,16,5,11,6.41,9.58,10,13.17l7.59-7.59L19,7m0-6H5A1.993,1.993,0,0,0,3,3V15.93a2.005,2.005,0,0,0,.88,1.66L12,23l8.11-5.41A2.014,2.014,0,0,0,21,15.93V3A2,2,0,0,0,19,1Z" transform="translate(842 830)" fill="#ffd1d1"/>
    <path id="playlist-check" d="M14,10H2v2H14V10m0-4H2V8H14V6M2,16h8V14H2v2m19.5-4.5L23,13l-7,7-4.5-4.5L13,14l3,3Z" transform="translate(871 825)" fill="#ffd1d1"/>
    <path id="shield-check-outline" d="M21,11c0,5.55-3.84,10.74-9,12-5.16-1.26-9-6.45-9-12V5l9-4,9,4v6M12,21c3.75-1,7-5.46,7-9.78V6.3L12,3.18,5,6.3v4.92C5,15.54,8.25,20,12,21m-2-4L6,13l1.41-1.41L10,14.17l6.59-6.59L18,9" transform="translate(901 830)" fill="#ffd1d1"/>
    <path id="shield-check" d="M10,17,6,13l1.41-1.41L10,14.17l6.59-6.59L18,9M12,1,3,5v6c0,5.55,3.84,10.74,9,12,5.16-1.26,9-6.45,9-12V5Z" transform="translate(929 830)" fill="#ffd1d1"/>
    <path id="help-box" d="M12.646,21.086h2.411V18.675H12.646v2.411M13.852,6.617A4.823,4.823,0,0,0,9.029,11.44H11.44a2.411,2.411,0,0,1,4.823,0c0,2.411-3.617,2.11-3.617,6.029h2.411c0-2.713,3.617-3.014,3.617-6.029a4.823,4.823,0,0,0-4.823-4.823M5.411,3h16.88A2.411,2.411,0,0,1,24.7,5.411v16.88A2.411,2.411,0,0,1,22.292,24.7H5.411A2.411,2.411,0,0,1,3,22.292V5.411A2.411,2.411,0,0,1,5.411,3Z" transform="translate(477 732)" fill="#ffded1"/>
    <path id="help-circle-outline" d="M12.852,21.292h2.411V18.88H12.852v2.411M14.057,2A12.057,12.057,0,1,0,26.115,14.057,12.057,12.057,0,0,0,14.057,2m0,21.7A9.646,9.646,0,1,1,23.7,14.057,9.659,9.659,0,0,1,14.057,23.7m0-16.88a4.823,4.823,0,0,0-4.823,4.823h2.411a2.411,2.411,0,0,1,4.823,0c0,2.411-3.617,2.11-3.617,6.029h2.411c0-2.713,3.617-3.014,3.617-6.029A4.823,4.823,0,0,0,14.057,6.823Z" transform="translate(511.761 733)" fill="#ffded1"/>
    <path id="help-circle" d="M17.759,13.153l-1.085,1.109a4.088,4.088,0,0,0-1.411,3.412H12.852v-.6a4.81,4.81,0,0,1,1.411-3.412l1.5-1.519a2.358,2.358,0,0,0,.711-1.7,2.411,2.411,0,0,0-4.823,0H9.234a4.823,4.823,0,0,1,9.646,0,3.858,3.858,0,0,1-1.121,2.713m-2.5,9.344H12.852V20.086h2.411M14.057,2A12.057,12.057,0,1,0,26.115,14.057,12.057,12.057,0,0,0,14.057,2Z" transform="translate(547.933 733)" fill="#ffded1"/>
    <path id="help-network-outline" d="M17.675,23.5a1.206,1.206,0,0,0-1.206-1.206H15.263V19.88h4.823A2.411,2.411,0,0,0,22.5,17.469V5.411A2.411,2.411,0,0,0,20.086,3H8.029A2.411,2.411,0,0,0,5.617,5.411V17.469A2.411,2.411,0,0,0,8.029,19.88h4.823v2.411H11.646A1.206,1.206,0,0,0,10.44,23.5H2v2.411h8.44a1.206,1.206,0,0,0,1.206,1.206h4.823a1.206,1.206,0,0,0,1.206-1.206h8.44V23.5h-8.44M8.029,17.469V5.411H20.086V17.469H8.029M14,6.617a4,4,0,0,0-2.267.6,2.315,2.315,0,0,0-.82,1.929l.012.036h2.062a1.043,1.043,0,0,1,.3-.76A1.117,1.117,0,0,1,14,8.2a1.1,1.1,0,0,1,.8.3,1.134,1.134,0,0,1,.289.8,1.514,1.514,0,0,1-.253.88,2.607,2.607,0,0,1-.651.663,3.918,3.918,0,0,0-1.121.953,2.1,2.1,0,0,0-.338,1.254h2.146A1.8,1.8,0,0,1,15,12.26a1.3,1.3,0,0,1,.555-.567,3.268,3.268,0,0,0,1.182-.989,2.156,2.156,0,0,0,.482-1.411,2.386,2.386,0,0,0-.868-1.941A3.5,3.5,0,0,0,14,6.617m-1.278,7.5v2.146h2.146V14.117Z" transform="translate(584.105 732)" fill="#ffded1"/>
    <path id="help-network" d="M20.086,3A2.411,2.411,0,0,1,22.5,5.411V17.469a2.411,2.411,0,0,1-2.411,2.411H15.263v2.411h1.206A1.206,1.206,0,0,1,17.675,23.5h8.44v2.411h-8.44a1.206,1.206,0,0,1-1.206,1.206H11.646a1.206,1.206,0,0,1-1.206-1.206H2V23.5h8.44a1.206,1.206,0,0,1,1.206-1.206h1.206V19.88H8.029a2.411,2.411,0,0,1-2.411-2.411V5.411A2.411,2.411,0,0,1,8.029,3H20.086m-5.8,2.411a4.238,4.238,0,0,0-2.544.711,2.487,2.487,0,0,0-.928,2.134l.012.036h2.327a1.1,1.1,0,0,1,.338-.832,1.206,1.206,0,0,1,.8-.277,1.248,1.248,0,0,1,.9.338,1.273,1.273,0,0,1,.313.9,1.672,1.672,0,0,1-.277.989,2.192,2.192,0,0,1-.736.711,4.87,4.87,0,0,0-1.266,1.1,2.381,2.381,0,0,0-.374,1.423h2.411a2.041,2.041,0,0,1,.157-.892,1.594,1.594,0,0,1,.615-.627,3.79,3.79,0,0,0,1.338-1.121,2.572,2.572,0,0,0,.531-1.58,2.714,2.714,0,0,0-.977-2.194,3.954,3.954,0,0,0-2.641-.82m-1.435,8.44v2.411h2.411V13.852Z" transform="translate(620.278 732)" fill="#ffded1"/>
    <path id="help-rhombus-outline" d="M25.517,12.616,15.509,2.608a1.97,1.97,0,0,0-2.894,0L2.608,12.616a1.97,1.97,0,0,0,0,2.894L12.616,25.517a1.97,1.97,0,0,0,2.894,0L25.517,15.509a2.2,2.2,0,0,0,0-2.894M24.07,14.063,14.063,24.07,4.055,14.063,14.063,4.055,24.07,14.063m-11.213,4.22h1.809v1.809H12.857V18.283M14.063,7.974a3.527,3.527,0,0,1,2.749,5.86c-.506.6-1.314,1-1.724,1.519a2.523,2.523,0,0,0-.422,1.724H12.857a4.394,4.394,0,0,1,.422-2.484,7.042,7.042,0,0,1,1.712-1.362c1.483-1.362,1.1-3.28-.928-3.436a1.817,1.817,0,0,0-1.809,1.821H10.445A3.633,3.633,0,0,1,14.063,7.974Z" transform="translate(656.475 733.025)" fill="#ffded1"/>
    <path id="help-rhombus" d="M25.517,12.616,15.509,2.608a1.97,1.97,0,0,0-2.894,0L2.608,12.616a1.97,1.97,0,0,0,0,2.894L12.616,25.517a1.97,1.97,0,0,0,2.894,0L25.517,15.509a2.2,2.2,0,0,0,0-2.894M14.665,20.091H12.857V18.283h1.809v1.809m2.17-6.27c-.482.6-1.326.965-1.688,1.567a2.692,2.692,0,0,0-.362,1.688H12.857a4.854,4.854,0,0,1,.362-2.411c.362-.6,1.206-.965,1.688-1.326,1.447-1.326,1.085-3.256-.965-3.376a1.854,1.854,0,0,0-1.809,1.809H10.445a3.553,3.553,0,0,1,3.617-3.617A3.393,3.393,0,0,1,16.836,13.821Z" transform="translate(692.647 733.025)" fill="#ffded1"/>
    <path id="help" d="M10.823,22.5H14.44v3.617H10.823V22.5M13.234,2c6.451.265,9.26,6.776,5.426,11.66-1,1.206-2.616,2-3.412,3.014a5.075,5.075,0,0,0-.808,3.412H10.823c0-2.014,0-3.714.808-4.919s2.411-1.917,3.412-2.713c2.918-2.7,2.194-6.523-1.809-6.837A3.617,3.617,0,0,0,9.617,9.234H6A7.234,7.234,0,0,1,13.234,2Z" transform="translate(724.794 733)" fill="#ffded1"/>
    <path id="lock-question_1_" data-name="lock-question (1)" d="M13.646,1A6.029,6.029,0,0,0,7.617,7.029V9.44H6.411A2.411,2.411,0,0,0,4,11.852V23.909a2.411,2.411,0,0,0,2.411,2.411H20.88a2.411,2.411,0,0,0,2.411-2.411V11.852A2.411,2.411,0,0,0,20.88,9.44H19.675V7.029A6.029,6.029,0,0,0,13.646,1m0,2.291a3.741,3.741,0,0,1,3.738,3.738V9.44H9.908V7.029a3.741,3.741,0,0,1,3.738-3.738m.229,9.164a4.369,4.369,0,0,1,2.689.748,2.437,2.437,0,0,1,.977,2.026,2.282,2.282,0,0,1-.531,1.447A3.667,3.667,0,0,1,15.647,17.7a1.54,1.54,0,0,0-.627.567,1.8,1.8,0,0,0-.169.82H12.44a2.025,2.025,0,0,1,.35-1.3,5.667,5.667,0,0,1,1.29-1.013,2.391,2.391,0,0,0,.772-.651,1.588,1.588,0,0,0,.265-.892,1.072,1.072,0,0,0-.326-.832,1.265,1.265,0,0,0-.916-.313,1.389,1.389,0,0,0-.832.253.968.968,0,0,0-.313.76H10.354a2.113,2.113,0,0,1,.94-1.989,4.571,4.571,0,0,1,2.58-.651M12.44,20.292h2.411V22.7H12.44Z" transform="translate(753.321 734)" fill="#ffded1"/>
    <text id="_trophy_Give_me_cool_sucesses_to_collect" data-name="#trophy Give me cool sucesses to collect" transform="translate(65 140)" fill="#ffd1d1" font-size="16" font-family="AvantGarde-Book, ITC Avant Garde Gothic Book"><tspan x="0" y="0">#trophy Give me cool sucesses to collect</tspan></text>
    <text id="https:_materialdesignicons.com" data-name="https://materialdesignicons.com" transform="translate(65 100)" fill="#d1fff6" font-size="36" font-family="AvantGarde-Book, ITC Avant Garde Gothic Book"><tspan x="0" y="0">https://materialdesignicons.com</tspan></text>
    <text id="_star_Show_me_my_awesome_talent" data-name="#star Show me my awesome talent" transform="translate(65 216)" fill="#f9d1ff" font-size="16" font-family="AvantGarde-Book, ITC Avant Garde Gothic Book"><tspan x="0" y="0">#star Show me my awesome talent</tspan></text>
    <text id="_chart_Show_me_my_awesome_evolution" data-name="#chart Show me my awesome evolution" transform="translate(65 295)" fill="#d1d3ff" font-size="16" font-family="AvantGarde-Book, ITC Avant Garde Gothic Book"><tspan x="0" y="0">#chart Show me my awesome evolution</tspan></text>
    <text id="_up_Give_me_augmentation" data-name="#up Give me augmentation" transform="translate(66 456)" fill="#d1fff7" font-size="16" font-family="AvantGarde-Book, ITC Avant Garde Gothic Book"><tspan x="0" y="0">#up Give me augmentation</tspan></text>
    <text id="_time_Challenge_me_with_timer" data-name="#time Challenge me with timer" transform="translate(66 542)" fill="#d1ffd6" font-size="16" font-family="AvantGarde-Book, ITC Avant Garde Gothic Book"><tspan x="0" y="0">#time Challenge me with timer</tspan></text>
    <text id="_circle_Show_me_my_progression" data-name="#circle Show me my progression" transform="translate(65 377)" fill="#d1faff" font-size="16" font-family="AvantGarde-Book, ITC Avant Garde Gothic Book"><tspan x="0" y="0">#circle Show me my progression</tspan></text>
    <text id="_flag_Give_me_objectives" data-name="#flag Give me objectives" transform="translate(65 635)" fill="#eeffd1" font-size="16" font-family="AvantGarde-Book, ITC Avant Garde Gothic Book"><tspan x="0" y="0">#flag Give me objectives</tspan></text>
    <text id="_lock_Give_me_curious_thing_to_unlock" data-name="#lock Give me curious thing to unlock" transform="translate(65 714)" fill="#ffded1" font-size="16" font-family="AvantGarde-Book, ITC Avant Garde Gothic Book"><tspan x="0" y="0">#lock Give me curious thing to unlock</tspan></text>
    <text id="_help_Give_me_more_curious_things_to_discover" data-name="#help Give me more curious things to discover" transform="translate(475 714)" fill="#ffded1" font-size="16" font-family="AvantGarde-Book, ITC Avant Garde Gothic Book"><tspan x="0" y="0">#help Give me more curious things to discover</tspan></text>
    <text id="_check_Show_me_what_I_achieve_well" data-name="#check Show me what I achieve well" transform="translate(65 813)" fill="#ffd1d1" font-size="16" font-family="AvantGarde-Book, ITC Avant Garde Gothic Book"><tspan x="0" y="0">#check Show me what I achieve well</tspan></text>
    <text id="_alert_Show_me_exciting_things" data-name="#alert Show me exciting things" transform="translate(65 896)" fill="#ffd1d1" font-size="16" font-family="AvantGarde-Book, ITC Avant Garde Gothic Book"><tspan x="0" y="0">#alert Show me exciting things</tspan></text>
    <text id="_gift_Give_me_present_and_love" data-name="#gift Give me present and love" transform="translate(65 977)" fill="#ead1ff" font-size="16" font-family="AvantGarde-Book, ITC Avant Garde Gothic Book"><tspan x="0" y="0">#gift Give me present and love</tspan></text>
    <path id="alert-box-outline" d="M19,19H5V5H19m0-2H5A2,2,0,0,0,3,5V19a2,2,0,0,0,2,2H19a2,2,0,0,0,2-2V5a2,2,0,0,0-2-2M11,15h2v2H11V15m0-8h2v6H11V7" transform="translate(65 911)" fill="#ffd1d1"/>
    <path id="alert-box" d="M5,3H19a2,2,0,0,1,2,2V19a2,2,0,0,1-2,2H5a2,2,0,0,1-2-2V5A2,2,0,0,1,5,3m8,10V7H11v6h2m0,4V15H11v2Z" transform="translate(93 911)" fill="#ffd1d1"/>
    <path id="alert-circle-outline" d="M11,15h2v2H11V15m0-8h2v6H11V7m1-5A10,10,0,1,0,22,12,10.01,10.01,0,0,0,12,2m0,18a8,8,0,1,1,8-8,8,8,0,0,1-8,8Z" transform="translate(122 912)" fill="#ffd1d1"/>
    <path id="alert-circle" d="M13,13H11V7h2m0,10H11V15h2M12,2A10,10,0,1,0,22,12,10,10,0,0,0,12,2Z" transform="translate(152 912)" fill="#ffd1d1"/>
    <path id="alert-decagram-outline" d="M23,12l-2.44,2.78.34,3.68-3.61.82L15.4,22.46,12,21,8.6,22.47,6.71,19.29,3.1,18.47l.34-3.69L1,12,3.44,9.21,3.1,5.53l3.61-.81L8.6,1.54,12,3l3.4-1.46,1.89,3.18,3.61.82-.34,3.68L23,12m-2.67,0L18.5,9.89l.24-2.79L16,6.5,14.58,4.07,12,5.18,9.42,4.07,8,6.5l-2.74.59L5.5,9.88,3.67,12,5.5,14.1l-.24,2.8L8,17.5l1.42,2.43L12,18.81l2.58,1.11L16,17.5l2.74-.61L18.5,14.1,20.33,12M11,15h2v2H11V15m0-8h2v6H11V7" transform="translate(183 912.46)" fill="#ffd1d1"/>
    <path id="alert-decagram" d="M23,12,20.56,9.22l.34-3.68-3.61-.82L15.4,1.54,12,3,8.6,1.54,6.71,4.72,3.1,5.53l.34,3.68L1,12l2.44,2.78L3.1,18.47l3.61.82L8.6,22.47,12,21l3.4,1.46,1.89-3.18,3.61-.82-.34-3.68L23,12M13,17H11V15h2v2m0-4H11V7h2Z" transform="translate(215 912.46)" fill="#ffd1d1"/>
    <path id="alert-octagon-outline" d="M8.27,3,3,8.27v7.46L8.27,21h7.46C17.5,19.24,21,15.73,21,15.73V8.27L15.73,3M9.1,5h5.8L19,9.1v5.8L14.9,19H9.1L5,14.9V9.1M11,15h2v2H11V15m0-8h2v6H11V7" transform="translate(245 911)" fill="#ffd1d1"/>
    <path id="alert-octagon" d="M13,13H11V7h2M12,17.3A1.3,1.3,0,1,1,13.3,16,1.3,1.3,0,0,1,12,17.3M15.73,3H8.27L3,8.27v7.46L8.27,21h7.46L21,15.73V8.27Z" transform="translate(273 911)" fill="#ffd1d1"/>
    <path id="alert" d="M13,14H11V10h2m0,8H11V16h2M1,21H23L12,2Z" transform="translate(303 912)" fill="#ffd1d1"/>
    <path id="bell-alert" d="M21,19v1H3V19l2-2V11a6.99,6.99,0,0,1,5-6.71V4a2,2,0,0,1,4,0v.29A6.99,6.99,0,0,1,19,11v6l2,2m-7,2a2,2,0,0,1-4,0h4M11,8v5h2V8H11m0,7v2h2V15Z" transform="translate(333 912)" fill="#ffd1d1"/>
    <path id="car-brake-alert" d="M11,15h2v2H11V15m0-8h2v6H11V7m1-4a9,9,0,1,0,9,9,9,9,0,0,0-9-9m0,16a7,7,0,1,1,7-7,7.008,7.008,0,0,1-7,7m8.5,1.5a12.071,12.071,0,0,0,0-17L19.42,4.58a10.478,10.478,0,0,1,0,14.84L20.5,20.5M4.58,19.42a10.478,10.478,0,0,1,0-14.84L3.5,3.5a12.071,12.071,0,0,0,0,17Z" transform="translate(364 911)" fill="#ffd1d1"/>
    <path id="chat-alert" d="M12,3c5.5,0,10,3.58,10,8s-4.5,8-10,8a12.651,12.651,0,0,1-3.53-.5A10.933,10.933,0,0,1,2,21c2.33-2.33,2.7-3.9,2.75-4.5A7.216,7.216,0,0,1,2,11C2,6.58,6.5,3,12,3M11,14v2h2V14H11m0-2h2V6H11Z" transform="translate(396 911)" fill="#ffd1d1"/>
    <path id="email-alert" d="M16,9V7l-6,4L4,7V9l6,4,6-4m0-4a2,2,0,0,1,2,2v9a2,2,0,0,1-2,2H4a2,2,0,0,1-2-2V7A2,2,0,0,1,4,5H16m4,7V7h2v5H20m0,4V14h2v2Z" transform="translate(426 909)" fill="#ffd1d1"/>
    <path id="message-alert-outline" d="M13,10H11V6h2v4m0,2H11v2h2V12m9-8V16a2,2,0,0,1-2,2H6L2,22V4A2,2,0,0,1,4,2H20a2,2,0,0,1,2,2M20,4H4V17.2L5.2,16H20Z" transform="translate(456 912)" fill="#ffd1d1"/>
    <path id="message-alert" d="M13,10H11V6h2m0,8H11V12h2M20,2H4A2,2,0,0,0,2,4V22l4-4H20a2,2,0,0,0,2-2V4A2,2,0,0,0,20,2Z" transform="translate(486 912)" fill="#ffd1d1"/>
    <path id="sim-alert" d="M13,13H11V8h2m0,9H11V15h2M18,2H10L4,8V20a2,2,0,0,0,2,2H18a2,2,0,0,0,2-2V4A2,2,0,0,0,18,2Z" transform="translate(514 912)" fill="#ffd1d1"/>
    <path id="gift_1_" data-name="gift (1)" d="M22,12v8a2,2,0,0,1-2,2H4a2,2,0,0,1-2-2V12a1,1,0,0,1-1-1V8A2,2,0,0,1,3,6H6.17A3,3,0,0,1,9,2a3.034,3.034,0,0,1,2.43,1.24V3.23L12,4l.57-.77v.01A3.034,3.034,0,0,1,15,2a3,3,0,0,1,2.83,4H21a2,2,0,0,1,2,2v3a1,1,0,0,1-1,1M4,20h7V12H4v8m16,0V12H13v8h7M9,4a1,1,0,1,0,1,1A1,1,0,0,0,9,4m6,0a1,1,0,1,0,1,1,1,1,0,0,0-1-1M3,8v2h8V8H3M13,8v2h8V8Z" transform="translate(66 993)" fill="#ead1ff"/>
    <path id="heart-outline" d="M12.1,18.55l-.1.1-.11-.1C7.14,14.24,4,11.39,4,8.5A3.418,3.418,0,0,1,7.5,5a3.926,3.926,0,0,1,3.57,2.36h1.86A3.926,3.926,0,0,1,16.5,5,3.418,3.418,0,0,1,20,8.5c0,2.89-3.14,5.74-7.9,10.05M16.5,3A6.014,6.014,0,0,0,12,5.08,6.014,6.014,0,0,0,7.5,3,5.44,5.44,0,0,0,2,8.5c0,3.77,3.4,6.86,8.55,11.53L12,21.35l1.45-1.32C18.6,15.36,22,12.27,22,8.5A5.44,5.44,0,0,0,16.5,3Z" transform="translate(97 992)" fill="#ead1ff"/>
    <path id="heart" d="M12,21.35l-1.45-1.32C5.4,15.36,2,12.27,2,8.5A5.44,5.44,0,0,1,7.5,3,6.014,6.014,0,0,1,12,5.08,6.014,6.014,0,0,1,16.5,3,5.44,5.44,0,0,1,22,8.5c0,3.77-3.4,6.86-8.55,11.53Z" transform="translate(127 992)" fill="#ead1ff"/>
    <path id="wallet-giftcard" d="M20,14H4V8H9.08L7,10.83,8.62,12,11,8.76,12,7.4l1,1.36L15.38,12,17,10.83,14.92,8H20m0,11H4V17H20M9,4A1,1,0,1,1,8,5,1,1,0,0,1,9,4m6,0a1,1,0,1,1-1,1,1,1,0,0,1,1-1m5,2H17.82A2.993,2.993,0,0,0,12.5,3.35L12,4l-.5-.66A2.994,2.994,0,0,0,6.18,6H4A1.993,1.993,0,0,0,2,8V19a1.993,1.993,0,0,0,2,2H20a1.993,1.993,0,0,0,2-2V8A1.993,1.993,0,0,0,20,6Z" transform="translate(157 993)" fill="#ead1ff"/>
    <path id="certificate" d="M4.475,3A2.466,2.466,0,0,0,2,5.475V17.848a2.475,2.475,0,0,0,2.475,2.475h9.9v6.186L18.085,22.8,21.8,26.509V20.322h2.475a2.475,2.475,0,0,0,2.475-2.475V5.475A2.475,2.475,0,0,0,24.271,3H4.475m9.9,2.475,3.712,2.475L21.8,5.475V9.805l3.712,1.856L21.8,13.517v4.331l-3.712-2.475-3.712,2.475V13.517l-3.712-1.856,3.712-1.856V5.475m-9.9,0h6.186V7.949H4.475V5.475m0,4.949H8.186V12.9H4.475V10.424m0,4.949h6.186v2.475H4.475Z" transform="translate(257.623 157.661)" fill="#ffd1d1"/>
    <path id="circle-slice-1" d="M12,2A10,10,0,1,1,2,12,10,10,0,0,1,12,2m0,2a8,8,0,1,0,8,8,8,8,0,0,0-8-8m4.9,3.1L12,12V5A6.715,6.715,0,0,1,16.9,7.1Z" transform="translate(65 392)" fill="#d1faff"/>
    <path id="circle-slice-2" d="M12,2A10,10,0,1,1,2,12,10,10,0,0,1,12,2m0,2a8,8,0,1,0,8,8,8,8,0,0,0-8-8m7,8H12V5a7.324,7.324,0,0,1,4.9,2.1A6.715,6.715,0,0,1,19,12Z" transform="translate(95 392)" fill="#d1faff"/>
    <path id="circle-slice-3" d="M12,2A10,10,0,1,1,2,12,10,10,0,0,1,12,2m0,2a8,8,0,1,0,8,8,8,8,0,0,0-8-8m4.9,12.9L12,12V5a7.324,7.324,0,0,1,4.9,2.1A6.715,6.715,0,0,1,19,12,6.887,6.887,0,0,1,16.9,16.9Z" transform="translate(125 392)" fill="#d1faff"/>
    <path id="circle-slice-4" d="M12,2A10,10,0,1,1,2,12,10,10,0,0,1,12,2m0,2a8,8,0,1,0,8,8,8,8,0,0,0-8-8m4.9,3.1A6.715,6.715,0,0,1,19,12a7.324,7.324,0,0,1-2.1,4.9A6.715,6.715,0,0,1,12,19V5A6.715,6.715,0,0,1,16.9,7.1Z" transform="translate(155 392)" fill="#d1faff"/>
    <path id="circle-slice-5" d="M12,2A10,10,0,1,1,2,12,10,10,0,0,1,12,2m0,2a8,8,0,1,0,8,8,8,8,0,0,0-8-8m4.9,3.1A6.715,6.715,0,0,1,19,12a7.324,7.324,0,0,1-2.1,4.9A6.715,6.715,0,0,1,12,19a6.887,6.887,0,0,1-4.9-2.1L12,12V5A6.715,6.715,0,0,1,16.9,7.1Z" transform="translate(185 392)" fill="#d1faff"/>
    <path id="circle-slice-6" d="M12,2A10,10,0,1,1,2,12,10,10,0,0,1,12,2m0,2a8,8,0,1,0,8,8,8,8,0,0,0-8-8m4.9,3.1A6.715,6.715,0,0,1,19,12a7.324,7.324,0,0,1-2.1,4.9A6.715,6.715,0,0,1,12,19a7.324,7.324,0,0,1-4.9-2.1A6.715,6.715,0,0,1,5,12h7V5A6.715,6.715,0,0,1,16.9,7.1Z" transform="translate(215 392)" fill="#d1faff"/>
    <path id="circle-slice-7" d="M12,2A10,10,0,1,1,2,12,10,10,0,0,1,12,2m0,2a8,8,0,1,0,8,8,8,8,0,0,0-8-8m4.9,3.1A6.715,6.715,0,0,1,19,12a7.324,7.324,0,0,1-2.1,4.9A6.715,6.715,0,0,1,12,19a7.324,7.324,0,0,1-4.9-2.1,6.767,6.767,0,0,1,0-9.8L12,12V5A6.715,6.715,0,0,1,16.9,7.1Z" transform="translate(245 392)" fill="#d1faff"/>
    <path id="circle-slice-8" d="M12,2A10,10,0,1,1,2,12,10,10,0,0,1,12,2m0,2a8,8,0,1,0,8,8,8,8,0,0,0-8-8m0,15a6.715,6.715,0,0,1-4.9-2.1A7.324,7.324,0,0,1,5,12,6.715,6.715,0,0,1,7.1,7.1,7.324,7.324,0,0,1,12,5a6.715,6.715,0,0,1,4.9,2.1A7.324,7.324,0,0,1,19,12a6.715,6.715,0,0,1-2.1,4.9A7.324,7.324,0,0,1,12,19Z" transform="translate(275 392)" fill="#d1faff"/>
    <path id="diamond-outline" d="M19.386,2H6.347L2,8.52,12.866,23.733,23.733,8.52,19.386,2M4.641,8.52,7.509,4.173H18.223L21.092,8.52,12.866,19.995Z" transform="translate(293.069 157.993)" fill="#ffd1d1"/>
    <path id="diamond-stone" d="M17.213,9.606h3.26L15.04,17.213M10.693,9.606H15.04L12.866,18.3M5.26,9.606H8.52l2.173,7.606m5.433-13.04H18.3l2.173,3.26h-3.26M11.78,4.173h2.173l1.087,3.26H10.693m-3.26-3.26H9.606L8.52,7.433H5.26M6.347,2,2,8.52,12.866,23.733,23.733,8.52,19.386,2Z" transform="translate(325.668 157.993)" fill="#ffd1d1"/>
    <path id="diamond" d="M6.347,2,2,8.52,12.866,23.733,23.733,8.52,19.386,2Z" transform="translate(358.267 157.993)" fill="#ffd1d1"/>
    <path id="flag-checkered" d="M14.4,6H20V16H13l-.4-2H7v7H5V4h9l.4,2M14,14h2V12h2V10H16V8H14v2L13,8V6H11V8H9V6H7V8H9v2H7v2H9V10h2v2h2V10l1,2v2m-3-4V8h2v2H11m3,0h2v2H14Z" transform="translate(65 649)" fill="#eeffd1"/>
    <path id="flag-outline" d="M14.5,6H20V16H13l-.5-2H7v7H5V4h9l.5,2M7,6v6h6l.5,2H18V8H14l-.5-2Z" transform="translate(90 649)" fill="#eeffd1"/>
    <path id="flag-triangle" d="M7,2H9V22H7V2M19,9l-8,5.6V3.4Z" transform="translate(113 651)" fill="#eeffd1"/>
    <path id="flag-variant-outline" d="M6,3A1,1,0,0,1,7,4v.88A10.724,10.724,0,0,1,11,4c3,0,3,2,5,2a4.333,4.333,0,0,0,4-2v8a4.333,4.333,0,0,1-4,2c-3,0-3-2-5-2a4.333,4.333,0,0,0-4,2v7H5V4A1,1,0,0,1,6,3M7,7.25V11.5A7.889,7.889,0,0,1,11,10c2,0,3,2,5,2s2-1,2-1V7.5A5.172,5.172,0,0,1,16,8c-2,0-3-2-5-2A8.809,8.809,0,0,0,7,7.25Z" transform="translate(137 650)" fill="#eeffd1"/>
    <path id="flag-variant" d="M6,3A1,1,0,0,1,7,4v.88A10.724,10.724,0,0,1,11,4c3,0,3,2,5,2a4.333,4.333,0,0,0,4-2v8a4.333,4.333,0,0,1-4,2c-3,0-3-2-5-2a4.333,4.333,0,0,0-4,2v7H5V4A1,1,0,0,1,6,3Z" transform="translate(162 650)" fill="#eeffd1"/>
    <path id="flag" d="M14.4,6,14,4H5V21H7V14h5.6l.4,2h7V6Z" transform="translate(187 649)" fill="#eeffd1"/>
    <path id="font-awesome" d="M6,3A2.5,2.5,0,0,1,7,7.79v.87A16.979,16.979,0,0,1,11,8a7.833,7.833,0,0,1,2.54.42,5.966,5.966,0,0,0,1.96.33,7.617,7.617,0,0,0,3.04-.64A1.039,1.039,0,0,1,19,8a1,1,0,0,1,1,1v8a.988.988,0,0,1-.55.89,9.5,9.5,0,0,1-3.95.86,13.236,13.236,0,0,1-2.96-.4A11.958,11.958,0,0,0,10,18a8.558,8.558,0,0,0-3,.66V22H5V7.79A2.5,2.5,0,0,1,6,3Z" transform="translate(217.5 649)" fill="#eeffd1"/>
    <path id="heart-box-outline" d="M12,17l-.72-.66C8.7,14,7,12.46,7,10.57A2.723,2.723,0,0,1,9.75,7.82,3.007,3.007,0,0,1,12,8.87a3.007,3.007,0,0,1,2.25-1.05A2.723,2.723,0,0,1,17,10.57c0,1.89-1.7,3.43-4.28,5.77L12,17M5,3H19a2,2,0,0,1,2,2V19a2,2,0,0,1-2,2H5a2,2,0,0,1-2-2V5A2,2,0,0,1,5,3M5,5V19H19V5Z" transform="translate(191 992)" fill="#ead1ff"/>
    <path id="heart-box" d="M5,3H19a2,2,0,0,1,2,2V19a2,2,0,0,1-2,2H5a2,2,0,0,1-2-2V5A2,2,0,0,1,5,3m7,14,.72-.66C15.3,14,17,12.46,17,10.57a2.723,2.723,0,0,0-2.75-2.75A3.007,3.007,0,0,0,12,8.87,3.007,3.007,0,0,0,9.75,7.82,2.723,2.723,0,0,0,7,10.57c0,1.89,1.7,3.43,4.28,5.77Z" transform="translate(219 992)" fill="#ead1ff"/>
    <path id="heart-circle-outline" d="M12,2A10,10,0,1,0,22,12,10,10,0,0,0,12,2m0,2a8,8,0,1,1-8,8,8,8,0,0,1,8-8M9.75,7.82A2.723,2.723,0,0,0,7,10.57c0,1.89,1.7,3.43,4.28,5.77L12,17l.72-.66C15.3,14,17,12.46,17,10.57a2.723,2.723,0,0,0-2.75-2.75A3.007,3.007,0,0,0,12,8.87,3.007,3.007,0,0,0,9.75,7.82Z" transform="translate(248 993)" fill="#ead1ff"/>
    <path id="heart-circle" d="M12,2A10,10,0,1,0,22,12,10.01,10.01,0,0,0,12,2M9.75,7.82A3.007,3.007,0,0,1,12,8.87a3.007,3.007,0,0,1,2.25-1.05A2.723,2.723,0,0,1,17,10.57c0,1.89-1.7,3.43-4.28,5.77L12,17l-.72-.66C8.7,14,7,12.46,7,10.57A2.723,2.723,0,0,1,9.75,7.82Z" transform="translate(278 993)" fill="#ead1ff"/>
    <path id="heart-half-full" d="M16.5,5A3.9,3.9,0,0,0,13,7.2V17.74c4.25-3.87,7-6.54,7-9.24A3.418,3.418,0,0,0,16.5,5m0-2A5.44,5.44,0,0,1,22,8.5c0,3.77-3.4,6.86-8.55,11.53L12,21.35l-1.45-1.32C5.4,15.36,2,12.27,2,8.5A5.44,5.44,0,0,1,7.5,3,6.014,6.014,0,0,1,12,5.08,6.014,6.014,0,0,1,16.5,3Z" transform="translate(308 992)" fill="#ead1ff"/>
    <path id="heart-half-outline" d="M4,8.5c0,2.7,2.75,5.37,7,9.24V7.2A3.9,3.9,0,0,0,7.5,5,3.418,3.418,0,0,0,4,8.5m9-1.3V20.44l-1,.91-1.45-1.32C5.4,15.36,2,12.27,2,8.5A5.44,5.44,0,0,1,7.5,3C10,3,13,5,13,7.2Z" transform="translate(338 992)" fill="#ead1ff"/>
    <path id="heart-half" d="M13,7.2V20.44l-1,.91-1.45-1.32C5.4,15.36,2,12.27,2,8.5A5.44,5.44,0,0,1,7.5,3C10,3,13,5,13,7.2Z" transform="translate(359 992)" fill="#ead1ff"/>
    <path id="heart-multiple-outline" d="M12,21.1l-1.5,1.3C3.9,16.5.5,13.4.5,9.6a5.779,5.779,0,0,1,1-3.2V7c0,4.7,3.9,8.2,10.5,14.1M13.6,17c4.7-4.3,7.9-7.1,8-10a3.418,3.418,0,0,0-3.5-3.5,3.847,3.847,0,0,0-3.6,2.4H12.6A4.062,4.062,0,0,0,9,3.5,3.418,3.418,0,0,0,5.5,7c0,2.9,3.1,5.7,7.9,10l.1.1M18,1.5A5.422,5.422,0,0,1,23.5,7c0,3.7-3.4,6.8-10,12.8-6.6-5.9-10-9-10-12.8A5.422,5.422,0,0,1,9,1.5a6.01,6.01,0,0,1,4.5,2.1A6.01,6.01,0,0,1,18,1.5Z" transform="translate(381.5 993.5)" fill="#ead1ff"/>
    <path id="heart-multiple" d="M13.5,20c-6.6-6.1-10-9.2-10-12.9A5.422,5.422,0,0,1,9,1.6a6.01,6.01,0,0,1,4.5,2.1A6.01,6.01,0,0,1,18,1.6a5.422,5.422,0,0,1,5.5,5.5c0,3.8-3.4,6.9-10,12.9M12,21.1C5.4,15.2,1.5,11.7,1.5,7V6.4a5.779,5.779,0,0,0-1,3.2c0,3.8,3.4,6.9,10,12.8Z" transform="translate(414.5 993.4)" fill="#ead1ff"/>
    <path id="hexagon-slice-1" d="M21,16.5a.991.991,0,0,1-.53.88l-7.9,4.44a.992.992,0,0,1-1.14,0l-7.9-4.44A.991.991,0,0,1,3,16.5v-9a.991.991,0,0,1,.53-.88l7.9-4.44a.992.992,0,0,1,1.14,0l7.9,4.44A.991.991,0,0,1,21,7.5v9M12,4.15,5,8.09v7.82l7,3.94,7-3.94V8.09L12,4.15M12,12V5.32l5.94,3.34Z" transform="translate(318 393)" fill="#d1faff"/>
    <path id="hexagon-slice-2" d="M18,15.38,12,12V5.32l6,3.37v6.69m3,1.12a.991.991,0,0,1-.53.88l-7.9,4.44a.992.992,0,0,1-1.14,0l-7.9-4.44A.991.991,0,0,1,3,16.5v-9a.991.991,0,0,1,.53-.88l7.9-4.44a.992.992,0,0,1,1.14,0l7.9,4.44A.991.991,0,0,1,21,7.5v9M12,4.15,5,8.09v7.82l7,3.94,7-3.94V8.09Z" transform="translate(346 393)" fill="#d1faff"/>
    <path id="hexagon-slice-3" d="M12,5.32l6,3.37v6.62l-6,3.37V5.32M21,16.5a.991.991,0,0,1-.53.88l-7.9,4.44a.992.992,0,0,1-1.14,0l-7.9-4.44A.991.991,0,0,1,3,16.5v-9a.991.991,0,0,1,.53-.88l7.9-4.44a.992.992,0,0,1,1.14,0l7.9,4.44A.991.991,0,0,1,21,7.5v9M12,4.15,5,8.09v7.82l7,3.94,7-3.94V8.09Z" transform="translate(374 393)" fill="#d1faff"/>
    <path id="hexagon-slice-4" d="M12,5.32l6,3.37v6.62l-6,3.37L6.06,15.34,12,12V5.32M21,16.5a.991.991,0,0,1-.53.88l-7.9,4.44a.992.992,0,0,1-1.14,0l-7.9-4.44A.991.991,0,0,1,3,16.5v-9a.991.991,0,0,1,.53-.88l7.9-4.44a.992.992,0,0,1,1.14,0l7.9,4.44A.991.991,0,0,1,21,7.5v9M12,4.15,5,8.09v7.82l7,3.94,7-3.94V8.09Z" transform="translate(402 393)" fill="#d1faff"/>
    <path id="hexagon-slice-5" d="M12,5.32l6,3.37v6.62l-6,3.37L6,15.31V8.69L12,12V5.32M21,16.5a.991.991,0,0,1-.53.88l-7.9,4.44a.992.992,0,0,1-1.14,0l-7.9-4.44A.991.991,0,0,1,3,16.5v-9a.991.991,0,0,1,.53-.88l7.9-4.44a.992.992,0,0,1,1.14,0l7.9,4.44A.991.991,0,0,1,21,7.5v9M12,4.15,5,8.09v7.82l7,3.94,7-3.94V8.09Z" transform="translate(430 393)" fill="#d1faff"/>
    <path id="hexagon-slice-6" d="M12,5.32l6,3.37v6.62l-6,3.37L6,15.31V8.69l6-3.37M21,16.5a.991.991,0,0,1-.53.88l-7.9,4.44a.992.992,0,0,1-1.14,0l-7.9-4.44A.991.991,0,0,1,3,16.5v-9a.991.991,0,0,1,.53-.88l7.9-4.44a.992.992,0,0,1,1.14,0l7.9,4.44A.991.991,0,0,1,21,7.5v9M12,4.15,5,8.09v7.82l7,3.94,7-3.94V8.09Z" transform="translate(458 393)" fill="#d1faff"/>
    <path id="hexagram-outline" d="M12.645,7.371l1.4,3.008,3.437-.43-2.148,2.793,2.041,2.685L13.934,15l-1.289,3.115-1.4-3.008-3.437.43L9.96,12.742,7.919,10.056l3.437.43,1.289-3.115m0-5.371L9.96,8.123,3.3,7.371l3.974,5.371L3.407,18.112l6.66-.752,2.578,6.123,2.685-6.123L21.99,18l-3.974-5.263,3.867-5.371-6.66.752Z" transform="translate(421.574 234)" fill="#f9d1ff"/>
    <path id="hexagram" d="M15.329,8.08l6.6-.741-3.91,5.4,3.953,5.339-6.638-.7-2.653,6.1L9.958,17.4l-6.6.741,3.91-5.4L3.32,7.4l6.638.7L12.611,2Z" transform="translate(451.631 234)" fill="#f9d1ff"/>
    <path id="triangle-outline" d="M11.275,2,1,19.747H21.549M11.275,5.736l7.033,12.143H4.241" transform="translate(483.654 234.934)" fill="#f9d1ff"/>
    <path id="triangle" d="M1,19.747H21.549L11.275,2" transform="translate(513.543 234.934)" fill="#f9d1ff"/>
  </g>
</svg>
